#!OML:ASF F:\VICON\USERDATA\INSTALL\rory3\rory3.ASF
:FULLY-SPECIFIED
:DEGREES
38
root -0.9946182129186806 17.969910328062657 6.760166559256771 4.05400810151633 2.546704713922039 4.850529768862347
lfemur -0.19913342229472875 1.5459367111695075 -33.18534096292261
ltibia 11.427480498626295
lfoot -26.657667600229694 -8.168162084403459
ltoes 6.498042217561181
rfemur -39.38621105288053 -12.764833233088218 14.833614319804058
rtibia 152.60158933809612
rfoot 24.813855446009544 -10.965915437476172
rtoes 37.16522522323316
lowerback 1.0 1.5722077680144255 -6.2839673035897645
upperback 1.0899110656746815 1.1571500126927456 -1.6023422087669155
thorax -7.905612609375396 0.5894751563421677 0.37269193670983525
lowerneck -19.91006137608466 -6.006709273045188 -1.2274377371912073
upperneck 10.488170989450246 -8.861593760022041 5.753882770264674
head 7.232188039232526 -3.6255787869555243 0.9066278295141902
lclavicle 1.9092526381484873e-14 5.686263825044013e-15
lhumerus -50.57694918899453 -8.654557753395988 93.76164426864818
lradius 128.1806138252192
lwrist 30.58109903907526
lhand -27.227849642050813 -4.998121122295348
lfingers nan
lthumb -0.2832617758889726 25.802228464849875
rclavicle 1.844788183222386e-14 7.076931880495832e-15
rhumerus -51.954160374535064 8.67821040334083 -98.86841773106457
rradius 75.4109935609915
rwrist -15.783183945422397
rhand -22.251837245698585 1.0
rfingers nan
rthumb 4.2657306564769115 4.655431122747106
39
root -0.9899020161931602 17.898168818070644 7.798522618063851 3.7421381413492885 2.697799081311806 5.342054032069405
lfemur 0.8497325356642946 0.9815847634015087 -33.19530069579619
ltibia 14.695733797934963
lfoot -28.170850194571912 -8.066562997256607
ltoes 11.755797125680157
rfemur -39.19526484468109 -13.574867428959562 14.227643594816914
rtibia 156.9282516701718
rfoot 24.26353324309279 -10.438022494661638
rtoes 39.74403149338367
lowerback 1.0 1.4261002598674575 -6.158336284157062
upperback 1.1948221614334742 1.0208992062235742 -1.622797447396552
thorax -8.044498826364356 0.468446341629987 0.4210792467708754
lowerneck -20.17887737052691 -5.975806365519951 -1.4143105867776904
upperneck 10.591956663255008 -8.787376770284348 5.970173480686813
head 7.328503032121307 -3.5622797550846146 0.9862090949461435
lclavicle 3.847920067456274e-14 1.0379199205427259e-14
lhumerus -49.54146558229718 -9.48681640496901 94.49680005610078
lradius 128.66990445407836
lwrist 30.69755099844478
lhand -27.67771106074649 -4.989167158380459
lfingers nan
lthumb -0.6872145901856257 25.874569320692707
rclavicle 3.826384794220486e-14 1.2133640627925875e-14
rhumerus -53.005702333963974 8.509945828359362 -99.17447794583269
rradius 73.79546465735714
rwrist -17.003376954547235
rhand -21.824983321373185 1.0
rfingers nan
rthumb 4.732676125387178 6.612318871288606
40
root -0.9948719781765594 17.816189895925064 8.955565525407609 3.3970310199317963 2.3148490008339113 5.9565890581952905
lfemur 2.0021228184965842 0.871804664086677 -33.504731844430324
ltibia 18.078616219148543
lfoot -30.39662514005191 -6.414712071929126
ltoes 12.718614910130167
rfemur -38.99961737263932 -13.55575312893592 13.501218247839693
rtibia 161.27269294380835
rfoot 23.175079590937894 -10.65009803390097
rtoes 40.90442577888674
lowerback 1.0 1.4912821147255324 -6.427837412107736
upperback 1.2924162735063531 1.0860736944011502 -1.7114590988897405
thorax -8.345644854098143 0.45966275004702617 0.5849766386776283
lowerneck -20.955299174067253 -5.923753456666832 -1.2825301605740838
upperneck 10.575041776587232 -8.704685551775105 6.070610865338243
head 7.414046570133841 -3.5065677881096415 1.0010826100507622
lclavicle 4.5069275444262675e-15 2.3651528990884865e-14
lhumerus -48.12500559068734 -10.379217994420504 95.02255277638582
lradius 129.07474485028112
lwrist 30.893908965453143
lhand -27.94244644872451 -4.882207014141288
lfingers nan
lthumb -0.9018945273336731 26.063876105633184
rclavicle 4.967728396025167e-15 2.5739881572372083e-14
rhumerus -53.156149352599186 8.870807091270633 -99.39521327611662
rradius 71.03386485696038
rwrist -22.4041639458283
rhand -21.361783366743577 1.0
rfingers nan
rthumb 5.226876840824886 6.314672151303425
41
root -0.9887893560779709 17.728225480296093 10.234526699897101 3.0459550823515205 2.012866778695516 6.32814012828948
lfemur 3.2766758706873986 0.7429257816286639 -33.55615612646773
ltibia 20.93983179728859
lfoot -31.951665966563837 -4.315448478756821
ltoes 14.34075372354273
rfemur -38.956422087413706 -13.346488950922259 12.989425635844343
rtibia 165.18495437287146
rfoot 22.49744214735409 -10.778946028718247
rtoes 42.34571849198557
lowerback 1.0 1.5513836939731092 -6.511309211862374
upperback 1.3802381293975898 1.1473161950473252 -1.6917824084440292
thorax -8.625737374954108 0.4498214546585934 0.8099244291625014
lowerneck -21.405827128196215 -5.810205132212367 -1.0215548683165196
upperneck 10.386493542634863 -8.537333010331407 5.985625432731419
head 7.380141044895489 -3.4465985157217753 0.9564832846281721
lclavicle 7.506022377718173e-15 9.146260612424844e-15
lhumerus -46.39089502170763 -11.14604523306313 95.40002684346203
lradius 129.19078315308607
lwrist 31.039748772404884
lhand -28.05389159620293 -4.891827904852882
lfingers nan
lthumb -0.9696680218926372 26.142915138915747
rclavicle 8.84088256158316e-15 1.1673181587917408e-14
rhumerus -53.80401406423224 8.582355786975182 -99.41079838457621
rradius 69.01963063275443
rwrist -21.34400594464316
rhand -21.598160997549293 1.0
rfingers nan
rthumb 5.027551920749601 5.430966336616975
